<svg width="24" height="29" viewBox="0 0 24 29" fill="none" xmlns="http://www.w3.org/2000/svg">
<path d="M12 5.92731C7 5.92731 2.73 9.58357 1 14.7447C2.73 19.9057 7 23.562 12 23.562C17 23.562 21.27 19.9057 23 14.7447C21.27 9.58357 17 5.92731 12 5.92731ZM12 20.6229C9.24 20.6229 7 17.9894 7 14.7447C7 11.4999 9.24 8.86642 12 8.86642C14.76 8.86642 17 11.4999 17 14.7447C17 17.9894 14.76 20.6229 12 20.6229ZM12 11.2177C10.34 11.2177 9 12.7931 9 14.7447C9 16.6962 10.34 18.2716 12 18.2716C13.66 18.2716 15 16.6962 15 14.7447C15 12.7931 13.66 11.2177 12 11.2177Z" fill="black" fill-opacity="0.54"/>
</svg>
